<mxfile host="app.diagrams.net" agent="Mozilla/5.0 (X11; Linux x86_64; rv:126.0) Gecko/20100101 Firefox/126.0" version="24.7.7">
  <diagram name="Page-1" id="2v0b9ODiNAxWGpTKqgTT">
    <mxGraphModel dx="2933" dy="1517" grid="1" gridSize="10" guides="1" tooltips="1" connect="1" arrows="1" fold="1" page="1" pageScale="1" pageWidth="850" pageHeight="1100" math="0" shadow="0">
      <root>
        <mxCell id="0" />
        <mxCell id="1" parent="0" />
        <mxCell id="WJM0juGeJpg9Q3ffJd4M-2" value="&lt;div style=&quot;font-size: 30px;&quot;&gt;Modules&lt;/div&gt;" style="text;html=1;align=center;verticalAlign=middle;whiteSpace=wrap;rounded=0;" vertex="1" parent="1">
          <mxGeometry x="470" y="130" width="60" height="30" as="geometry" />
        </mxCell>
        <mxCell id="WJM0juGeJpg9Q3ffJd4M-13" value="" style="edgeStyle=orthogonalEdgeStyle;rounded=0;orthogonalLoop=1;jettySize=auto;html=1;" edge="1" parent="1" source="WJM0juGeJpg9Q3ffJd4M-3" target="WJM0juGeJpg9Q3ffJd4M-5">
          <mxGeometry relative="1" as="geometry" />
        </mxCell>
        <mxCell id="WJM0juGeJpg9Q3ffJd4M-16" style="edgeStyle=orthogonalEdgeStyle;rounded=0;orthogonalLoop=1;jettySize=auto;html=1;entryX=0;entryY=0.5;entryDx=0;entryDy=0;" edge="1" parent="1" source="WJM0juGeJpg9Q3ffJd4M-3" target="WJM0juGeJpg9Q3ffJd4M-8">
          <mxGeometry relative="1" as="geometry" />
        </mxCell>
        <mxCell id="WJM0juGeJpg9Q3ffJd4M-3" value="MotionDataParser" style="rounded=0;whiteSpace=wrap;html=1;" vertex="1" parent="1">
          <mxGeometry x="120" y="200" width="120" height="60" as="geometry" />
        </mxCell>
        <mxCell id="WJM0juGeJpg9Q3ffJd4M-14" value="" style="edgeStyle=orthogonalEdgeStyle;rounded=0;orthogonalLoop=1;jettySize=auto;html=1;" edge="1" parent="1" source="WJM0juGeJpg9Q3ffJd4M-5" target="WJM0juGeJpg9Q3ffJd4M-6">
          <mxGeometry relative="1" as="geometry" />
        </mxCell>
        <mxCell id="WJM0juGeJpg9Q3ffJd4M-17" style="edgeStyle=orthogonalEdgeStyle;rounded=0;orthogonalLoop=1;jettySize=auto;html=1;entryX=0;entryY=0.5;entryDx=0;entryDy=0;" edge="1" parent="1" source="WJM0juGeJpg9Q3ffJd4M-5" target="WJM0juGeJpg9Q3ffJd4M-8">
          <mxGeometry relative="1" as="geometry" />
        </mxCell>
        <mxCell id="WJM0juGeJpg9Q3ffJd4M-5" value="&lt;div&gt;MorseParser&lt;/div&gt;" style="rounded=0;whiteSpace=wrap;html=1;" vertex="1" parent="1">
          <mxGeometry x="280" y="260" width="120" height="60" as="geometry" />
        </mxCell>
        <mxCell id="WJM0juGeJpg9Q3ffJd4M-15" value="" style="edgeStyle=orthogonalEdgeStyle;rounded=0;orthogonalLoop=1;jettySize=auto;html=1;" edge="1" parent="1" source="WJM0juGeJpg9Q3ffJd4M-6" target="WJM0juGeJpg9Q3ffJd4M-7">
          <mxGeometry relative="1" as="geometry" />
        </mxCell>
        <mxCell id="WJM0juGeJpg9Q3ffJd4M-20" style="edgeStyle=orthogonalEdgeStyle;rounded=0;orthogonalLoop=1;jettySize=auto;html=1;entryX=0.5;entryY=1;entryDx=0;entryDy=0;" edge="1" parent="1" source="WJM0juGeJpg9Q3ffJd4M-6" target="WJM0juGeJpg9Q3ffJd4M-8">
          <mxGeometry relative="1" as="geometry" />
        </mxCell>
        <mxCell id="WJM0juGeJpg9Q3ffJd4M-6" value="HQ" style="rounded=0;whiteSpace=wrap;html=1;" vertex="1" parent="1">
          <mxGeometry x="440" y="320" width="120" height="60" as="geometry" />
        </mxCell>
        <mxCell id="WJM0juGeJpg9Q3ffJd4M-21" style="edgeStyle=orthogonalEdgeStyle;rounded=0;orthogonalLoop=1;jettySize=auto;html=1;entryX=0.5;entryY=1;entryDx=0;entryDy=0;" edge="1" parent="1" source="WJM0juGeJpg9Q3ffJd4M-7" target="WJM0juGeJpg9Q3ffJd4M-8">
          <mxGeometry relative="1" as="geometry" />
        </mxCell>
        <mxCell id="WJM0juGeJpg9Q3ffJd4M-7" value="InterAppComm" style="rounded=0;whiteSpace=wrap;html=1;" vertex="1" parent="1">
          <mxGeometry x="600" y="380" width="120" height="60" as="geometry" />
        </mxCell>
        <mxCell id="WJM0juGeJpg9Q3ffJd4M-8" value="Security" style="rounded=0;whiteSpace=wrap;html=1;" vertex="1" parent="1">
          <mxGeometry x="600" y="200" width="120" height="60" as="geometry" />
        </mxCell>
        <mxCell id="WJM0juGeJpg9Q3ffJd4M-27" value="" style="swimlane;startSize=0;" vertex="1" parent="1">
          <mxGeometry x="30" y="530" width="200" height="330" as="geometry" />
        </mxCell>
        <mxCell id="WJM0juGeJpg9Q3ffJd4M-22" value="&lt;div style=&quot;font-size: 13px;&quot;&gt;&lt;font style=&quot;font-size: 20px;&quot;&gt;MotionDataParser&lt;/font&gt;&lt;/div&gt;" style="text;html=1;align=center;verticalAlign=middle;whiteSpace=wrap;rounded=0;" vertex="1" parent="WJM0juGeJpg9Q3ffJd4M-27">
          <mxGeometry x="70" y="5" width="60" height="30" as="geometry" />
        </mxCell>
        <mxCell id="WJM0juGeJpg9Q3ffJd4M-24" value="&lt;div&gt;Subscribe to accelerometer data&lt;/div&gt;" style="rounded=0;whiteSpace=wrap;html=1;" vertex="1" parent="WJM0juGeJpg9Q3ffJd4M-27">
          <mxGeometry x="40" y="50" width="120" height="60" as="geometry" />
        </mxCell>
        <mxCell id="WJM0juGeJpg9Q3ffJd4M-25" value="Process data to extract taps" style="rounded=0;whiteSpace=wrap;html=1;" vertex="1" parent="WJM0juGeJpg9Q3ffJd4M-27">
          <mxGeometry x="40" y="140" width="120" height="60" as="geometry" />
        </mxCell>
        <mxCell id="WJM0juGeJpg9Q3ffJd4M-26" value="If activation command is received, Pass tap data to Morse Parser" style="rounded=0;whiteSpace=wrap;html=1;" vertex="1" parent="WJM0juGeJpg9Q3ffJd4M-27">
          <mxGeometry x="40" y="230" width="120" height="80" as="geometry" />
        </mxCell>
        <mxCell id="WJM0juGeJpg9Q3ffJd4M-33" value="" style="swimlane;startSize=0;" vertex="1" parent="1">
          <mxGeometry x="280" y="530" width="200" height="230" as="geometry" />
        </mxCell>
        <mxCell id="WJM0juGeJpg9Q3ffJd4M-34" value="&lt;font style=&quot;font-size: 20px;&quot;&gt;MorseParser&lt;/font&gt;" style="text;html=1;align=center;verticalAlign=middle;whiteSpace=wrap;rounded=0;" vertex="1" parent="WJM0juGeJpg9Q3ffJd4M-33">
          <mxGeometry x="70" y="5" width="60" height="30" as="geometry" />
        </mxCell>
        <mxCell id="WJM0juGeJpg9Q3ffJd4M-35" value="Translate taps into characters" style="rounded=0;whiteSpace=wrap;html=1;" vertex="1" parent="WJM0juGeJpg9Q3ffJd4M-33">
          <mxGeometry x="40" y="50" width="120" height="60" as="geometry" />
        </mxCell>
        <mxCell id="WJM0juGeJpg9Q3ffJd4M-36" value="If a command is recognized start passing data to HQ" style="rounded=0;whiteSpace=wrap;html=1;" vertex="1" parent="WJM0juGeJpg9Q3ffJd4M-33">
          <mxGeometry x="40" y="140" width="120" height="60" as="geometry" />
        </mxCell>
        <mxCell id="WJM0juGeJpg9Q3ffJd4M-37" value="" style="swimlane;startSize=0;" vertex="1" parent="1">
          <mxGeometry x="520" y="530" width="200" height="330" as="geometry" />
        </mxCell>
        <mxCell id="WJM0juGeJpg9Q3ffJd4M-38" value="&lt;font style=&quot;font-size: 20px;&quot;&gt;HQ&lt;/font&gt;" style="text;html=1;align=center;verticalAlign=middle;whiteSpace=wrap;rounded=0;" vertex="1" parent="WJM0juGeJpg9Q3ffJd4M-37">
          <mxGeometry x="70" y="15" width="60" height="20" as="geometry" />
        </mxCell>
        <mxCell id="WJM0juGeJpg9Q3ffJd4M-40" value="Receive/Process command and message data" style="rounded=0;whiteSpace=wrap;html=1;" vertex="1" parent="WJM0juGeJpg9Q3ffJd4M-37">
          <mxGeometry x="40" y="50" width="120" height="60" as="geometry" />
        </mxCell>
        <mxCell id="WJM0juGeJpg9Q3ffJd4M-41" value="Route commands/messages to relevant targets via InterAppComm" style="rounded=0;whiteSpace=wrap;html=1;" vertex="1" parent="WJM0juGeJpg9Q3ffJd4M-37">
          <mxGeometry x="40" y="140" width="120" height="70" as="geometry" />
        </mxCell>
        <mxCell id="WJM0juGeJpg9Q3ffJd4M-52" value="Provide feedback to user via InterAppComm" style="rounded=0;whiteSpace=wrap;html=1;" vertex="1" parent="WJM0juGeJpg9Q3ffJd4M-37">
          <mxGeometry x="40" y="240" width="120" height="60" as="geometry" />
        </mxCell>
        <mxCell id="WJM0juGeJpg9Q3ffJd4M-42" value="HQ RULES" style="swimlane;whiteSpace=wrap;html=1;" vertex="1" parent="1">
          <mxGeometry x="520" y="880" width="200" height="150" as="geometry" />
        </mxCell>
        <mxCell id="WJM0juGeJpg9Q3ffJd4M-43" value="If input is interrupted before target command is completed, reset " style="text;html=1;align=center;verticalAlign=middle;whiteSpace=wrap;rounded=0;" vertex="1" parent="WJM0juGeJpg9Q3ffJd4M-42">
          <mxGeometry x="10" y="40" width="180" height="30" as="geometry" />
        </mxCell>
        <mxCell id="WJM0juGeJpg9Q3ffJd4M-44" value="If input is interrupted after message input begins, save to target app and reset" style="text;html=1;align=center;verticalAlign=middle;whiteSpace=wrap;rounded=0;" vertex="1" parent="WJM0juGeJpg9Q3ffJd4M-42">
          <mxGeometry x="10" y="90" width="180" height="30" as="geometry" />
        </mxCell>
        <mxCell id="WJM0juGeJpg9Q3ffJd4M-45" value="" style="swimlane;startSize=0;" vertex="1" parent="1">
          <mxGeometry x="760" y="530" width="200" height="140" as="geometry" />
        </mxCell>
        <mxCell id="WJM0juGeJpg9Q3ffJd4M-46" value="&lt;font style=&quot;font-size: 20px;&quot;&gt;InterAppComm&lt;/font&gt;" style="text;html=1;align=center;verticalAlign=middle;whiteSpace=wrap;rounded=0;" vertex="1" parent="WJM0juGeJpg9Q3ffJd4M-45">
          <mxGeometry x="70" y="10" width="60" height="30" as="geometry" />
        </mxCell>
        <mxCell id="WJM0juGeJpg9Q3ffJd4M-47" value="Manage I/O between apps" style="rounded=0;whiteSpace=wrap;html=1;" vertex="1" parent="WJM0juGeJpg9Q3ffJd4M-45">
          <mxGeometry x="40" y="50" width="120" height="60" as="geometry" />
        </mxCell>
        <mxCell id="WJM0juGeJpg9Q3ffJd4M-49" value="" style="swimlane;startSize=0;" vertex="1" parent="1">
          <mxGeometry x="1000" y="530" width="200" height="140" as="geometry" />
        </mxCell>
        <mxCell id="WJM0juGeJpg9Q3ffJd4M-50" value="&lt;font style=&quot;font-size: 20px;&quot;&gt;Security&lt;/font&gt;" style="text;html=1;align=center;verticalAlign=middle;whiteSpace=wrap;rounded=0;" vertex="1" parent="WJM0juGeJpg9Q3ffJd4M-49">
          <mxGeometry x="70" y="10" width="60" height="30" as="geometry" />
        </mxCell>
        <mxCell id="WJM0juGeJpg9Q3ffJd4M-51" value="Do security shit" style="rounded=0;whiteSpace=wrap;html=1;" vertex="1" parent="WJM0juGeJpg9Q3ffJd4M-49">
          <mxGeometry x="40" y="50" width="120" height="60" as="geometry" />
        </mxCell>
        <mxCell id="WJM0juGeJpg9Q3ffJd4M-53" value="" style="swimlane;startSize=0;" vertex="1" parent="1">
          <mxGeometry y="90" width="1220" height="990" as="geometry" />
        </mxCell>
        <mxCell id="WJM0juGeJpg9Q3ffJd4M-60" value="Command Structure" style="swimlane;fontStyle=0;childLayout=stackLayout;horizontal=1;startSize=30;horizontalStack=0;resizeParent=1;resizeParentMax=0;resizeLast=0;collapsible=1;marginBottom=0;whiteSpace=wrap;html=1;" vertex="1" parent="1">
          <mxGeometry x="1290" y="100" width="140" height="160" as="geometry" />
        </mxCell>
        <mxCell id="WJM0juGeJpg9Q3ffJd4M-61" value="1. $Activate" style="text;strokeColor=none;fillColor=none;align=left;verticalAlign=middle;spacingLeft=4;spacingRight=4;overflow=hidden;points=[[0,0.5],[1,0.5]];portConstraint=eastwest;rotatable=0;whiteSpace=wrap;html=1;" vertex="1" parent="WJM0juGeJpg9Q3ffJd4M-60">
          <mxGeometry y="30" width="140" height="30" as="geometry" />
        </mxCell>
        <mxCell id="WJM0juGeJpg9Q3ffJd4M-62" value="2. Target (app, contact)" style="text;strokeColor=none;fillColor=none;align=left;verticalAlign=middle;spacingLeft=4;spacingRight=4;overflow=hidden;points=[[0,0.5],[1,0.5]];portConstraint=eastwest;rotatable=0;whiteSpace=wrap;html=1;" vertex="1" parent="WJM0juGeJpg9Q3ffJd4M-60">
          <mxGeometry y="60" width="140" height="30" as="geometry" />
        </mxCell>
        <mxCell id="WJM0juGeJpg9Q3ffJd4M-63" value="3. Message" style="text;strokeColor=none;fillColor=none;align=left;verticalAlign=middle;spacingLeft=4;spacingRight=4;overflow=hidden;points=[[0,0.5],[1,0.5]];portConstraint=eastwest;rotatable=0;whiteSpace=wrap;html=1;" vertex="1" parent="WJM0juGeJpg9Q3ffJd4M-60">
          <mxGeometry y="90" width="140" height="30" as="geometry" />
        </mxCell>
        <mxCell id="WJM0juGeJpg9Q3ffJd4M-64" value="4. Command (send, save, cancel, etc.)" style="text;strokeColor=none;fillColor=none;align=left;verticalAlign=middle;spacingLeft=4;spacingRight=4;overflow=hidden;points=[[0,0.5],[1,0.5]];portConstraint=eastwest;rotatable=0;whiteSpace=wrap;html=1;" vertex="1" parent="WJM0juGeJpg9Q3ffJd4M-60">
          <mxGeometry y="120" width="140" height="40" as="geometry" />
        </mxCell>
        <mxCell id="WJM0juGeJpg9Q3ffJd4M-65" value="Options" style="swimlane;fontStyle=0;childLayout=stackLayout;horizontal=1;startSize=30;horizontalStack=0;resizeParent=1;resizeParentMax=0;resizeLast=0;collapsible=1;marginBottom=0;whiteSpace=wrap;html=1;" vertex="1" parent="1">
          <mxGeometry x="1480" y="100" width="140" height="180" as="geometry" />
        </mxCell>
        <mxCell id="WJM0juGeJpg9Q3ffJd4M-66" value="Allow user to choose custom app commands" style="text;strokeColor=none;fillColor=none;align=left;verticalAlign=middle;spacingLeft=4;spacingRight=4;overflow=hidden;points=[[0,0.5],[1,0.5]];portConstraint=eastwest;rotatable=0;whiteSpace=wrap;html=1;" vertex="1" parent="WJM0juGeJpg9Q3ffJd4M-65">
          <mxGeometry y="30" width="140" height="50" as="geometry" />
        </mxCell>
        <mxCell id="WJM0juGeJpg9Q3ffJd4M-67" value="&lt;div&gt;Allow adding shortcuts for given contacts&lt;/div&gt;" style="text;strokeColor=none;fillColor=none;align=left;verticalAlign=middle;spacingLeft=4;spacingRight=4;overflow=hidden;points=[[0,0.5],[1,0.5]];portConstraint=eastwest;rotatable=0;whiteSpace=wrap;html=1;" vertex="1" parent="WJM0juGeJpg9Q3ffJd4M-65">
          <mxGeometry y="80" width="140" height="50" as="geometry" />
        </mxCell>
        <mxCell id="WJM0juGeJpg9Q3ffJd4M-68" value="Feedback options (audio, haptic, morse)" style="text;strokeColor=none;fillColor=none;align=left;verticalAlign=middle;spacingLeft=4;spacingRight=4;overflow=hidden;points=[[0,0.5],[1,0.5]];portConstraint=eastwest;rotatable=0;whiteSpace=wrap;html=1;" vertex="1" parent="WJM0juGeJpg9Q3ffJd4M-65">
          <mxGeometry y="130" width="140" height="50" as="geometry" />
        </mxCell>
        <mxCell id="WJM0juGeJpg9Q3ffJd4M-69" value="Required permissions" style="swimlane;fontStyle=0;childLayout=stackLayout;horizontal=1;startSize=30;horizontalStack=0;resizeParent=1;resizeParentMax=0;resizeLast=0;collapsible=1;marginBottom=0;whiteSpace=wrap;html=1;" vertex="1" parent="1">
          <mxGeometry x="1290" y="280" width="150" height="120" as="geometry" />
        </mxCell>
        <mxCell id="WJM0juGeJpg9Q3ffJd4M-70" value="Run in the background" style="text;strokeColor=none;fillColor=none;align=left;verticalAlign=middle;spacingLeft=4;spacingRight=4;overflow=hidden;points=[[0,0.5],[1,0.5]];portConstraint=eastwest;rotatable=0;whiteSpace=wrap;html=1;" vertex="1" parent="WJM0juGeJpg9Q3ffJd4M-69">
          <mxGeometry y="30" width="150" height="30" as="geometry" />
        </mxCell>
        <mxCell id="WJM0juGeJpg9Q3ffJd4M-71" value="Access Contacts" style="text;strokeColor=none;fillColor=none;align=left;verticalAlign=middle;spacingLeft=4;spacingRight=4;overflow=hidden;points=[[0,0.5],[1,0.5]];portConstraint=eastwest;rotatable=0;whiteSpace=wrap;html=1;" vertex="1" parent="WJM0juGeJpg9Q3ffJd4M-69">
          <mxGeometry y="60" width="150" height="30" as="geometry" />
        </mxCell>
        <mxCell id="WJM0juGeJpg9Q3ffJd4M-72" value="Send messages" style="text;strokeColor=none;fillColor=none;align=left;verticalAlign=middle;spacingLeft=4;spacingRight=4;overflow=hidden;points=[[0,0.5],[1,0.5]];portConstraint=eastwest;rotatable=0;whiteSpace=wrap;html=1;" vertex="1" parent="WJM0juGeJpg9Q3ffJd4M-69">
          <mxGeometry y="90" width="150" height="30" as="geometry" />
        </mxCell>
      </root>
    </mxGraphModel>
  </diagram>
</mxfile>
